<?xml version="1.0" encoding="iso-8859-1"?>
<!-- Uploaded to: SVG Repo, www.svgrepo.com, Generator: SVG Repo Mixer Tools -->
<svg height="800px" width="800px" version="1.1" id="Layer_1" xmlns="http://www.w3.org/2000/svg" xmlns:xlink="http://www.w3.org/1999/xlink" 
	 viewBox="0 0 511.999 511.999" xml:space="preserve">
<path style="fill:#547475;" d="M354.32,0h-41.431h-25.532h-13.491h-35.731h-5.7h-25.532h-49.222
	c-29.441,0-53.313,23.869-53.313,53.314v147.689v109.995v147.688c0,29.444,23.871,53.314,53.313,53.314h49.222h25.532h5.7h35.731
	h13.491h25.532h41.431c29.446,0,53.311-23.869,53.311-53.314V310.998V201.002V53.314C407.632,23.869,383.766,0,354.32,0z"/>
<polygon style="fill:#53CAF9;" points="104.367,73.224 104.367,201.002 104.367,310.998 104.367,421.231 368.921,421.231 
	402.996,421.231 407.632,421.231 407.632,310.998 407.632,201.002 407.632,73.224 "/>
<g>
	<path style="fill:#698F92;" d="M302.746,465.944c0,7.376-5.979,13.355-13.355,13.355h-66.78c-7.376,0-13.355-5.98-13.355-13.355
		l0,0c0-7.376,5.979-13.355,13.355-13.355h66.78C296.766,452.588,302.746,458.568,302.746,465.944L302.746,465.944z"/>
	<path style="fill:#698F92;" d="M282.089,45.196h-86.813c-4.61,0-8.348-3.738-8.348-8.348s3.738-8.348,8.348-8.348h86.813
		c4.61,0,8.348,3.738,8.348,8.348S286.699,45.196,282.089,45.196z"/>
	<path style="fill:#698F92;" d="M307.095,45.197c-2.204,0-4.352-0.89-5.899-2.449c-1.558-1.547-2.449-3.706-2.449-5.899
		c0-2.193,0.89-4.352,2.449-5.899c1.547-1.558,3.706-2.449,5.899-2.449s4.341,0.89,5.899,2.449c1.558,1.547,2.449,3.706,2.449,5.899
		c0,2.204-0.89,4.352-2.449,5.899C311.447,44.307,309.286,45.197,307.095,45.197z"/>
	<path style="fill:#698F92;" d="M332.695,45.197c-2.204,0-4.352-0.89-5.899-2.449c-1.558-1.547-2.449-3.706-2.449-5.899
		c0-2.193,0.89-4.352,2.436-5.899c1.558-1.558,3.719-2.449,5.911-2.449s4.352,0.89,5.899,2.449c1.558,1.547,2.449,3.706,2.449,5.899
		c0,2.204-0.89,4.352-2.449,5.899C337.047,44.307,334.886,45.197,332.695,45.197z"/>
</g>
<path style="opacity:0.15;fill:#231F20;enable-background:new    ;" d="M122.176,458.686V310.998V201.002V53.314
	C122.176,23.869,146.047,0,175.49,0h-17.809c-29.441,0-53.313,23.869-53.313,53.314v147.689v109.995v147.688
	c0,29.444,23.871,53.314,53.313,53.314h17.809C146.047,512,122.176,488.131,122.176,458.686z"/>
<g>
	<path style="fill:#A8E2EF;" d="M200.754,182.435c0,6.33-5.131,11.461-11.462,11.461h-22.922c-6.331,0-11.462-5.131-11.462-11.461
		v-22.923c0-6.33,5.131-11.461,11.462-11.461h22.922c6.331,0,11.462,5.131,11.462,11.461V182.435z"/>
	<path style="fill:#A8E2EF;" d="M200.754,258.688c0,6.33-5.131,11.461-11.462,11.461h-22.922c-6.331,0-11.462-5.131-11.462-11.461
		v-22.923c0-6.331,5.131-11.461,11.462-11.461h22.922c6.331,0,11.462,5.131,11.462,11.461V258.688z"/>
	<path style="fill:#A8E2EF;" d="M200.754,334.944c0,6.33-5.131,11.461-11.462,11.461h-22.922c-6.331,0-11.462-5.131-11.462-11.461
		v-22.923c0-6.33,5.131-11.461,11.462-11.461h22.922c6.331,0,11.462,5.131,11.462,11.461V334.944z"/>
	<path style="fill:#A8E2EF;" d="M278.923,182.435c0,6.33-5.131,11.461-11.462,11.461h-22.922c-6.331,0-11.462-5.131-11.462-11.461
		v-22.923c0-6.33,5.131-11.461,11.462-11.461h22.922c6.331,0,11.462,5.131,11.462,11.461V182.435z"/>
	<path style="fill:#A8E2EF;" d="M278.923,258.688c0,6.33-5.131,11.461-11.462,11.461h-22.922c-6.331,0-11.462-5.131-11.462-11.461
		v-22.923c0-6.331,5.131-11.461,11.462-11.461h22.922c6.331,0,11.462,5.131,11.462,11.461V258.688z"/>
	<path style="fill:#A8E2EF;" d="M278.923,334.944c0,6.33-5.131,11.461-11.462,11.461h-22.922c-6.331,0-11.462-5.131-11.462-11.461
		v-22.923c0-6.33,5.131-11.461,11.462-11.461h22.922c6.331,0,11.462,5.131,11.462,11.461V334.944z"/>
	<path style="fill:#A8E2EF;" d="M357.093,182.435c0,6.33-5.131,11.461-11.462,11.461h-22.922c-6.331,0-11.462-5.131-11.462-11.461
		v-22.923c0-6.33,5.131-11.461,11.462-11.461h22.922c6.331,0,11.462,5.131,11.462,11.461V182.435z"/>
	<path style="fill:#A8E2EF;" d="M357.093,258.688c0,6.33-5.131,11.461-11.462,11.461h-22.922c-6.331,0-11.462-5.131-11.462-11.461
		v-22.923c0-6.331,5.131-11.461,11.462-11.461h22.922c6.331,0,11.462,5.131,11.462,11.461V258.688z"/>
	<path style="fill:#A8E2EF;" d="M357.093,334.944c0,6.33-5.131,11.461-11.462,11.461h-22.922c-6.331,0-11.462-5.131-11.462-11.461
		v-22.923c0-6.33,5.131-11.461,11.462-11.461h22.922c6.331,0,11.462,5.131,11.462,11.461V334.944z"/>
</g>
</svg>