<?xml version="1.0" encoding="iso-8859-1"?>
<!-- Uploaded to: SVG Repo, www.svgrepo.com, Generator: SVG Repo Mixer Tools -->
<svg height="800px" width="800px" version="1.1" id="Layer_1" xmlns="http://www.w3.org/2000/svg" xmlns:xlink="http://www.w3.org/1999/xlink" 
	 viewBox="0 0 512 512" xml:space="preserve">
<path style="fill:#A9C4C4;" d="M350.541,498.643c0,7.376-5.979,13.357-13.357,13.357H174.813c-7.377,0-13.357-5.98-13.357-13.357
	V13.357C161.457,5.98,167.436,0,174.813,0h162.371c7.377,0,13.357,5.98,13.357,13.357V498.643z"/>
<path style="opacity:0.15;fill:#231F20;enable-background:new    ;" d="M179.267,498.643V13.357C179.267,5.98,185.246,0,192.623,0
	h-17.81c-7.377,0-13.357,5.98-13.357,13.357v485.287c0,7.376,5.979,13.357,13.357,13.357h17.81
	C185.246,512,179.267,506.02,179.267,498.643z"/>
<path style="fill:#547475;" d="M396.158,137.148L366.43,87.021c-1.402-2.366-3.95-3.818-6.702-3.818H152.27
	c-2.751,0-5.298,1.451-6.701,3.818l-29.728,50.127c-0.715,1.202-1.09,2.574-1.09,3.974v229.757c0,1.399,0.376,2.771,1.09,3.974
	l29.728,50.127c1.404,2.366,3.95,3.818,6.701,3.818h207.459c2.751,0,5.299-1.451,6.702-3.818l29.728-50.127
	c0.715-1.202,1.09-2.576,1.09-3.974V141.122C397.247,139.723,396.871,138.35,396.158,137.148z"/>
<path style="fill:#53CAF9;" d="M207.271,358.751h116.49h9.133h5.337h9.133c8.648,0,15.658-7.009,15.658-15.656V168.907
	c0-8.646-7.011-15.656-15.658-15.656h-9.133h-5.337h-9.133H188.237h-9.135h-5.335h-9.135c-8.649,0-15.656,7.011-15.656,15.656
	v174.187c0,8.648,7.007,15.656,15.656,15.656h9.135h1.996h5.908"/>
<path style="fill:#A9C4C4;" d="M285.357,400.623h-58.715c-4.61,0-8.348-3.736-8.348-8.348c0-4.611,3.738-8.348,8.348-8.348h58.715
	c4.61,0,8.348,3.736,8.348,8.348C293.704,396.887,289.967,400.623,285.357,400.623z"/>
<path style="opacity:0.15;fill:#231F20;enable-background:new    ;" d="M142.531,380.07c-0.079-0.135-0.14-0.278-0.211-0.417
	l-8.738-14.736c-0.669-1.126-1.021-2.413-1.021-3.723V145.921c0-1.311,0.352-2.598,1.021-3.724l27.854-46.967
	c0.167-0.282,0.352-0.549,0.552-0.801l6.656-11.225H152.27c-2.751,0-5.298,1.451-6.701,3.818l-29.728,50.127
	c-0.715,1.202-1.09,2.574-1.09,3.974v229.757c0,1.399,0.376,2.771,1.09,3.974l29.728,50.127c1.404,2.366,3.95,3.818,6.701,3.818
	h19.159L142.531,380.07z"/>
<path style="fill:#F74848;" d="M241.143,231.595c0,6.078-4.93,11.009-11.009,11.009h-34.531c-6.081,0-11.01-4.931-11.01-11.009
	v-31.193c0-6.078,4.93-11.009,11.01-11.009h34.531c6.079,0,11.009,4.931,11.009,11.009V231.595z"/>
<path style="fill:#F5F5F5;" d="M241.143,311.599c0,6.079-4.93,11.009-11.009,11.009h-34.531c-6.081,0-11.01-4.93-11.01-11.009
	v-31.193c0-6.079,4.93-11.009,11.01-11.009h34.531c6.079,0,11.009,4.93,11.009,11.009V311.599z"/>
<path style="fill:#EFD760;" d="M327.404,231.595c0,6.078-4.93,11.009-11.009,11.009h-34.531c-6.081,0-11.01-4.931-11.01-11.009
	v-31.193c0-6.078,4.93-11.009,11.01-11.009h34.531c6.079,0,11.009,4.931,11.009,11.009V231.595z"/>
<path style="fill:#AAE6F9;" d="M327.404,311.599c0,6.079-4.93,11.009-11.009,11.009h-34.531c-6.081,0-11.01-4.93-11.01-11.009
	v-31.193c0-6.079,4.93-11.009,11.01-11.009h34.531c6.079,0,11.009,4.93,11.009,11.009V311.599z"/>
</svg>