<?xml version="1.0" encoding="iso-8859-1"?>
<!-- Uploaded to: SVG Repo, www.svgrepo.com, Generator: SVG Repo Mixer Tools -->
<svg version="1.1" id="Layer_1" xmlns="http://www.w3.org/2000/svg" xmlns:xlink="http://www.w3.org/1999/xlink" 
	 viewBox="0 0 511.999 511.999" xml:space="preserve">
<path style="fill:#698F92;" d="M431.854,0H80.146C64.796,0,52.352,12.444,52.352,27.795v456.409
	c0,15.352,12.444,27.795,27.794,27.795h351.708c15.348,0,27.794-12.444,27.794-27.795v-345.8v-26.609v-84
	C459.648,12.444,447.203,0,431.854,0z"/>
<path style="opacity:0.15;fill:#231F20;enable-background:new    ;" d="M70.172,484.205V27.795C70.172,12.444,82.616,0,97.966,0
	H80.146C64.796,0,52.352,12.444,52.352,27.795v456.409c0,15.352,12.444,27.795,27.794,27.795h17.82
	C82.616,512,70.172,499.556,70.172,484.205z"/>
<path style="fill:#53CAF9;" d="M419.567,410.557c0,7.348-5.957,13.306-13.306,13.306H105.739c-7.349,0-13.306-5.958-13.306-13.306
	V80.067c0-7.348,5.957-13.306,13.306-13.306h300.521c7.349,0,13.306,5.958,13.306,13.306V410.557z"/>
<g>
	<path style="fill:#8AACAD;" d="M301.14,468.153c0,7.348-5.957,13.305-13.305,13.305h-66.527c-7.348,0-13.305-5.957-13.305-13.305
		l0,0c0-7.348,5.957-13.305,13.305-13.305h66.527C295.183,454.848,301.14,460.805,301.14,468.153L301.14,468.153z"/>
	<path style="fill:#8AACAD;" d="M259.814,40.704h-50.491c-4.593,0-8.316-3.723-8.316-8.316s3.723-8.316,8.316-8.316h50.49
		c4.593,0,8.316,3.723,8.316,8.316S264.406,40.704,259.814,40.704z"/>
	<path style="fill:#8AACAD;" d="M284.724,40.704c-2.184,0-4.335-0.887-5.877-2.439c-1.552-1.541-2.439-3.681-2.439-5.877
		c0-2.184,0.887-4.335,2.439-5.877c1.541-1.552,3.68-2.439,5.877-2.439c2.184,0,4.336,0.887,5.877,2.439
		c1.552,1.541,2.439,3.692,2.439,5.877s-0.887,4.335-2.439,5.877C289.059,39.817,286.908,40.704,284.724,40.704z"/>
	<path style="fill:#8AACAD;" d="M309.118,40.704c-2.184,0-4.335-0.887-5.877-2.439c-1.552-1.541-2.439-3.692-2.439-5.877
		s0.887-4.335,2.439-5.877c1.541-1.552,3.692-2.439,5.877-2.439c2.184,0,4.336,0.887,5.877,2.439
		c1.552,1.541,2.439,3.692,2.439,5.877c0,2.195-0.887,4.335-2.439,5.877C313.454,39.817,311.302,40.704,309.118,40.704z"/>
</g>
<rect x="133.535" y="151.354" style="fill:#98DEF4;" width="244.428" height="46.238"/>
<path style="fill:#F5F5F5;" d="M406.261,66.761H105.739c-7.349,0-13.306,5.958-13.306,13.306v24.557h327.133V80.067
	C419.567,72.719,413.61,66.761,406.261,66.761z"/>
<path style="fill:#F74848;" d="M142.188,66.761h-36.449c-7.349,0-13.306,5.958-13.306,13.306v24.557h49.755L142.188,66.761
	L142.188,66.761z"/>
<g>
	<path style="fill:#98DEF4;" d="M372.546,246.258H139.694c-4.593,0-8.316-3.723-8.316-8.316c0-4.593,3.723-8.316,8.316-8.316
		h232.852c4.594,0,8.316,3.723,8.316,8.316C380.862,242.534,377.14,246.258,372.546,246.258z"/>
	<path style="fill:#98DEF4;" d="M372.546,281.273H139.694c-4.593,0-8.316-3.723-8.316-8.316c0-4.593,3.723-8.316,8.316-8.316
		h232.852c4.594,0,8.316,3.723,8.316,8.316C380.862,277.55,377.14,281.273,372.546,281.273z"/>
	<path style="fill:#98DEF4;" d="M372.546,316.287H139.694c-4.593,0-8.316-3.723-8.316-8.316c0-4.593,3.723-8.316,8.316-8.316
		h232.852c4.594,0,8.316,3.723,8.316,8.316C380.862,312.563,377.14,316.287,372.546,316.287z"/>
	<path style="fill:#98DEF4;" d="M372.546,351.301H139.694c-4.593,0-8.316-3.723-8.316-8.316s3.723-8.316,8.316-8.316h232.852
		c4.594,0,8.316,3.723,8.316,8.316S377.14,351.301,372.546,351.301z"/>
	<path style="fill:#98DEF4;" d="M372.546,386.315H139.694c-4.593,0-8.316-3.723-8.316-8.316c0-4.593,3.723-8.316,8.316-8.316
		h232.852c4.594,0,8.316,3.723,8.316,8.316C380.862,382.592,377.14,386.315,372.546,386.315z"/>
</g>
<path style="opacity:0.15;fill:#231F20;enable-background:new    ;" d="M110.175,410.557V80.067c0-7.348,5.957-13.306,13.306-13.306
	h-17.741c-7.349,0-13.306,5.958-13.306,13.306v330.491c0,7.348,5.957,13.306,13.306,13.306h17.741
	C116.131,423.863,110.175,417.906,110.175,410.557z"/>
</svg>